<?xml version="1.0" encoding="UTF-8"?> <svg xmlns="http://www.w3.org/2000/svg" id="Layer_1" data-name="Layer 1" viewBox="0 0 256 256"><defs><style>.cls-1{fill:#101226;fill-rule:evenodd;}</style></defs><path id="Fill-26" class="cls-1" d="M34.78,201.11h13c.33-6.47,2.57-18.26-1-25-4.05-7.58-13.32-14.65-21.91-22.92-3.4-3.56-11.31-9.15-11.31-19.08,0-13.17,9.62-16.7,16.17-16.94a20.67,20.67,0,0,1,6.88.92,34.24,34.24,0,0,1,5.51-12.5,34.75,34.75,0,0,0-12.07-2c-12.49.27-30,8.94-30,30.47,0,14.22,8.88,22.7,17,30.89,9.09,9.23,16.47,18,17.82,36.11"></path><polygon id="Fill-27" class="cls-1" points="36.57 225.48 225.52 225.48 225.52 213.29 36.57 213.29 36.57 225.48"></polygon><polygon id="Fill-28" class="cls-1" points="36.57 249.84 225.52 249.84 225.52 237.66 36.57 237.66 36.57 249.84"></polygon><path id="Fill-29" class="cls-1" d="M77.61,201.11H92.5c1.35-11.46,5.76-21.36,3-29.8C92.41,161.75,80,151.6,72.67,143.52c-6-6.62-9.75-12.47-9.75-20.71,0-9.13,7.24-17.5,18.15-17.5,12.38,0,19.68,11.64,34.74,11.64V103.16c-8.83-.85-17.43-11.71-34.74-11.71a31.3,31.3,0,0,0-32.31,31.92c0,13.08,6.34,21.14,12.49,28.93,7.93,10.06,16.82,21.92,16.36,48.81"></path><path id="Fill-30" class="cls-1" d="M226.31,117.17c6.55.24,16.17,3.77,16.17,16.94,0,9.93-7.91,15.52-11.31,19.08-8.59,8.27-17.86,15.34-21.91,22.92-3.6,6.74-1.36,18.53-1,25h13C222.57,183,230,174.23,239,165c8.07-8.19,17-16.67,17-30.89,0-21.53-17.52-30.2-30-30.47a34.75,34.75,0,0,0-12.07,2,34.41,34.41,0,0,1,5.51,12.5,20.67,20.67,0,0,1,6.88-.92"></path><path id="Fill-31" class="cls-1" d="M146.29,117c15.06,0,22.36-11.64,34.74-11.64,10.91,0,18.15,8.37,18.15,17.5,0,8.24-3.76,14.09-9.75,20.71-7.31,8.08-19.74,18.23-22.85,27.79-2.74,8.44,1.67,18.34,3,29.8h14.9c-.46-26.89,8.43-38.75,16.36-48.81,6.15-7.79,12.48-15.85,12.48-28.93A31.29,31.29,0,0,0,181,91.45c-17.32,0-25.91,10.86-34.74,11.71V117"></path><path id="Fill-32" class="cls-1" d="M123.17,91.45v39c0,24.86-7.36,31-7.36,39.3,0,10.37,4.77,13.81,7.34,25.28,0,0,0,0,0,0v0h15.75v0l0,0c2.57-11.47,7.34-14.91,7.34-25.28,0-8.34-7.35-14.44-7.35-39.3a.27.27,0,0,1,0,.09V91.45H123.17"></path><path id="Fill-33" class="cls-1" d="M131.06,58.44a7.48,7.48,0,1,1-7.79,7.48A7.63,7.63,0,0,1,131.06,58.44Zm-6.58-10.82a19.46,19.46,0,0,0-13.67,18.3c0,10.74,9.07,19.43,20.25,19.43s20.22-8.69,20.22-19.43a19.44,19.44,0,0,0-13.67-18.3V33.43h14.77V20.83H137.61V6.16H124.48V20.83H109.71v12.6h14.77Z"></path></svg> 